<svg viewBox="0 0 225 50" xmlns="http://www.w3.org/2000/svg" shape-rendering="crispEdges" fill="#1F2328"> 
    <polygon points="0,38 7,38 7,41 0,41" /> 
    <!-- R --> 
    <polygon points="10,0 20,0 20,40 10,40" /> 
    <polygon points="15,0 35,0 35,5 15,5" /> 
    <polygon points="15,18 35,18 35,23 15,23" /> 
    <polygon points="30,4 38,4 38,19 30,19" /> 
    <polygon points="24,22 31,22 31,29 24,29" /> 
    <polygon points="27,28 34,28 34,35 27,35" /> 
    <polygon points="31,33 38,33 38,40 31,40" /> 
    <!-- E --> <polygon points="45,0 55,0 55,40 45,40" /> 
    <polygon points="50,0 70,0 70,5 50,5" /> 
    <polygon points="50,18 70,18 70,23 50,23" /> 
    <polygon points="50,35 70,35 70,40 50,40" /> 
    <!-- B --> 
    <polygon points="78,0 88,0 88,40 78,40" /> 
    <polygon points="83,0 103,0 103,5 83,5" /> 
    <polygon points="102,3 109,3 109,19 102,19" /> 
    <polygon points="83,18 103,18 103,23 83,23" /> 
    <polygon points="102,21 109,21 109,37 102,37" /> 
    <polygon points="83,35 103,35 103,40 83,40" /> 
    <!-- 0 --> 
    <polygon points="115,0 125,0 125,40 115,40" /> 
    <polygon points="120,0 140,0 140,10 120,10" /> 
    <polygon points="120,30 140,30 140,40 120,40" /> 
    <polygon points="135,0 145,0 145,40 135,40" /> 
    <!-- 0 --> 
    <polygon points="152,0 162,0 162,40 152,40" /> 
    <polygon points="157,0 177,0 177,10 157,10" /> 
    <polygon points="157,30 177,30 177,40 157,40" /> 
    <polygon points="172,0 182,0 182,40 172,40" /> 
    <!-- T --> 
    <polygon points="202,0 212,0 212,40 202,40" /> 
    <polygon points="188,0 228,0 228,7 188,7" /> 
</svg>